<svg id="Layer_1" data-name="Layer 1" xmlns="http://www.w3.org/2000/svg" viewBox="0 0 14.72 14.72"><defs><style>.cls-1{fill:none;}</style></defs><title>gearicon</title><circle class="cls-1" cx="7.36" cy="7.36" r="2.36"/><path d="M12.63,8h0A1.33,1.33,0,0,1,14,6.67h.61a.8.8,0,0,0,.76-1,7,7,0,0,0-.47-1.14.79.79,0,0,0-1.27-.19l-.43.43a1.33,1.33,0,0,1-1.88,0h0a1.33,1.33,0,0,1,0-1.88l.43-.43a.79.79,0,0,0-.19-1.27A7,7,0,0,0,10.37.68a.8.8,0,0,0-1,.76V2A1.35,1.35,0,0,1,8,3.37H8A1.33,1.33,0,0,1,6.67,2.05V1.44a.8.8,0,0,0-1-.76,7,7,0,0,0-1.14.47A.79.79,0,0,0,4.3,2.42l.43.43a1.33,1.33,0,0,1,0,1.88h0a1.33,1.33,0,0,1-1.88,0L2.42,4.3a.79.79,0,0,0-1.27.19A7,7,0,0,0,.68,5.63a.8.8,0,0,0,.76,1H2A1.35,1.35,0,0,1,3.37,8h0A1.33,1.33,0,0,1,2.05,9.33H1.44a.8.8,0,0,0-.76,1,7,7,0,0,0,.47,1.14.79.79,0,0,0,1.27.19l.43-.43a1.33,1.33,0,0,1,1.88,0h0a1.33,1.33,0,0,1,0,1.88l-.43.43a.79.79,0,0,0,.19,1.27,7,7,0,0,0,1.14.47.8.8,0,0,0,1-.76V14A1.35,1.35,0,0,1,8,12.63H8A1.33,1.33,0,0,1,9.33,14v.61a.8.8,0,0,0,1,.76,7,7,0,0,0,1.14-.47.79.79,0,0,0,.19-1.27l-.43-.43a1.33,1.33,0,0,1,0-1.88h0a1.33,1.33,0,0,1,1.88,0l.43.43a.79.79,0,0,0,1.27-.19,7,7,0,0,0,.47-1.14.8.8,0,0,0-.76-1H14A1.35,1.35,0,0,1,12.63,8ZM8,10.36A2.36,2.36,0,1,1,10.36,8,2.36,2.36,0,0,1,8,10.36Z" transform="translate(-0.64 -0.64)"/></svg>