<?xml version="1.0" encoding="utf-8"?>
<!-- Generator: Adobe Illustrator 23.0.1, SVG Export Plug-In . SVG Version: 6.00 Build 0)  -->
<svg version="1.1" id="Layer_1" xmlns="http://www.w3.org/2000/svg" xmlns:xlink="http://www.w3.org/1999/xlink" x="0px" y="0px"
	 viewBox="0 0 16 16" style="enable-background:new 0 0 16 16;" xml:space="preserve">
<g>
	<path d="M11.83,1.72H4.17c-0.46,0-0.83,0.37-0.83,0.83V14c0,0.46,0.37,0.83,0.83,0.83h7.67c0.46,0,0.83-0.37,0.83-0.83V2.55
		C12.67,2.09,12.29,1.72,11.83,1.72z M11.81,13.19H4.19V12.1h7.61V13.19z M11.81,11H4.19V9.91h7.61V11z M11.81,8.82H4.19V7.73h7.61
		V8.82z M11.81,6.63H4.19V5.54h7.61V6.63z M11.81,4.45H4.19V3.36h7.61V4.45z"/>
</g>
</svg>
