<svg id="Layer_1" data-name="Layer 1" xmlns="http://www.w3.org/2000/svg" viewBox="0 0 11.72 11.72"><title>xicon</title><path d="M13.66,12.71a.67.67,0,0,1-.95.95L8,8.93,3.26,13.66a.7.7,0,0,1-.48.18.71.71,0,0,1-.47-.18.7.7,0,0,1,0-.95L7,8,2.31,3.26a.7.7,0,0,1-.18-.48.71.71,0,0,1,.18-.47.7.7,0,0,1,.95,0L8,7l4.72-4.73a.7.7,0,0,1,.95,0,.7.7,0,0,1,0,.95L8.93,8Z" transform="translate(-2.12 -2.13)"/><path d="M12.22,6.71V9.33L10.91,8l1.31-1.31m.41-1.32a.33.33,0,0,0-.24.1L10.1,7.78a.33.33,0,0,0,0,.48l2.29,2.29a.33.33,0,0,0,.24.1.34.34,0,0,0,.34-.34V5.73a.34.34,0,0,0-.34-.34Z" transform="translate(-2.12 -2.13)"/><path d="M6.71,3.75H9.33L8,5.06,6.71,3.75m-1.32-.4a.32.32,0,0,0,.1.23l2.29,2.3a.34.34,0,0,0,.48,0l2.29-2.3a.32.32,0,0,0,.1-.23A.34.34,0,0,0,10.31,3H5.73a.34.34,0,0,0-.34.35Z" transform="translate(-2.12 -2.13)"/><path d="M3.75,9.26V6.64L5.06,8,3.75,9.26m-.4,1.33a.32.32,0,0,0,.23-.1l2.3-2.3a.34.34,0,0,0,0-.48L3.58,5.42a.32.32,0,0,0-.23-.1A.35.35,0,0,0,3,5.66v4.59a.35.35,0,0,0,.35.34Z" transform="translate(-2.12 -2.13)"/><path d="M9.26,12.22H6.64L8,10.91l1.31,1.31m1.33.41a.33.33,0,0,0-.1-.24L8.19,10.1a.33.33,0,0,0-.48,0L5.42,12.39a.33.33,0,0,0-.1.24.34.34,0,0,0,.34.34h4.59a.34.34,0,0,0,.34-.34Z" transform="translate(-2.12 -2.13)"/></svg>